<svg version="1" xmlns="http://www.w3.org/2000/svg" width="693.333" height="693.333" viewBox="0 0 520.000000 520.000000"><path d="M65 1.5C34.7 7.7 11.1 29.7 2.4 60 .6 66.2.5 74.3.2 256.8 0 441.7 0 447.3 1.9 456.5c6 29.1 28.4 52.7 58.1 61.1 6.2 1.8 15.6 1.9 196 2.2 170.4.3 190.4.1 198.6-1.3 29.9-5.3 54.2-27.8 63-58.5 1.8-6.2 1.9-14.4 2.2-195.5.2-140.4 0-190.9-.9-196.5-4.8-31.3-27.5-56.6-58.9-65.6C453.8.6 445.8.5 262.5.3 107.5.2 70.3.4 65 1.5zm149 143c10.9 2.4 22.4 6.2 31.2 10.2l7.6 3.5.6 12.1c2 41.6 2 39.7-.2 39.7-1.4 0-2.5-1.4-4.1-5.1-5.1-12.3-14.4-26.2-24.1-35.9-13.4-13.5-25.4-19-41.2-19-30.5 0-50.2 22.3-58.7 66.4-6.2 31.9-4.7 75.7 3.5 104.6 7.5 26.3 23.5 45.5 41.9 50.5 8.1 2.2 22.2 1.6 30.7-1.4 18.3-6.4 35-24.3 48.9-52.4 3.7-7.3 5.9-10.7 7.1-10.7 1.3 0 1.6.7 1.2 3.3-.3 1.7-1.8 15.1-3.4 29.6-1.6 14.5-3 26.4-3.2 26.6-.9.8-20.6 7.7-26.9 9.5-10.9 2.9-17.1 4-29.7 4.9-51.3 3.9-92.9-18.1-112.3-59.3-9-19.2-12.4-38.1-11.6-64.1.7-23.6 4.2-38.6 13-56 15.5-31 44.3-52.1 79.6-58.5 7.7-1.5 41.6-.4 50.1 1.5zm237.4 5.2c.3 2.7 1.3 12.9 2.1 22.8s1.8 19.9 2.1 22.2c.4 3.7.3 4.3-1.3 4.3-1.2 0-3.7-3.2-7.7-10-10.7-18.1-20.1-27.6-31.6-32.1-4.2-1.7-8.4-2.3-17.8-2.7l-12.3-.4.3 99.3c.4 90.3.6 99.9 2.1 105.3 1 3.2 2.7 7.2 3.9 8.8 2.5 3.5 8.9 6.7 13.6 6.8 2.5 0 3.2.4 3.2 2 0 2-.7 2-46 2s-46 0-46-2c0-1.6.7-2 3.5-2 4.4 0 10.6-3.1 13.4-6.6 1.2-1.5 2.9-5 3.8-7.8 1.6-4.7 1.8-13.7 2.1-105.4l.3-100.2h-9c-16.6 0-26.4 3.5-36 13-6 5.8-13.1 15.7-19.1 26.2-2.1 3.8-3.8 5.8-5 5.8-1.5 0-1.8-.6-1.4-3.3.4-3.1 4.4-48 4.4-49.8 0-.5 35.8-.9 88.9-.9h88.9l.6 4.7z"/></svg>